<svg xmlns="http://www.w3.org/2000/svg" viewBox="0 0 208.47 308.34"><defs><style>.cls-1{fill:#999;}.cls-2{fill:#e2e2e2;}.cls-3{fill:#564e5b;}</style></defs><g id="Слой_2" data-name="Слой 2"><g id="Слой_3" data-name="Слой 3"><polygon class="cls-1" points="104.18 0.44 141.1 0.44 186.18 51.44 208.47 125.73 178.75 125.73 162.41 63.09 134.18 24.44 104.18 23.63 67.44 63.09 41.9 125.73 14.87 125.73 47.18 50.44 104.18 0.44"/><polygon class="cls-1" points="14.12 125.34 207.71 125.34 207.71 243.47 152.12 308.34 72.9 308.34 14.12 231.21 14.12 125.34"/><polygon class="cls-2" points="0 125.29 193.6 125.29 193.6 243.41 138 308.29 58.79 308.29 0 231.16 0 125.29"/><polygon class="cls-3" points="67.31 174 126.22 174 111.31 209 112.31 239 84.31 234 85.37 206.5 67.31 174"/><polygon class="cls-2" points="89.31 0 126.22 0 171.31 51 193.6 125.29 163.88 125.29 147.54 62.64 119.31 24 89.31 23.19 52.56 62.64 27.03 125.29 0 125.29 32.31 50 89.31 0"/></g></g></svg>