<svg xmlns="http://www.w3.org/2000/svg" viewBox="0 0 1920 1080"><defs><style>.cls-1{fill:#edffe9;}.cls-2{fill:#94d996;}.cls-3{fill:#bf8b71;}.cls-4{fill:#f0e6b3;}.cls-5{fill:#ccc;}.cls-6{fill:#ff8f7f;}.cls-7{fill:#ffaea5;}.cls-8{fill:#de7a7a;}.cls-9{fill:#e1ce8c;}.cls-10{fill:#cb9e87;}.cls-11{fill:#e3efff;}.cls-12{fill:#c9dcfc;}.cls-13{fill:#bdccd4;}.cls-14{fill:#fff9eb;}.cls-15,.cls-16{fill:#606060;}.cls-15,.cls-17{stroke:#b3b3b3;stroke-miterlimit:10;}.cls-15{stroke-width:8px;}.cls-17{fill:none;stroke-width:15px;}.cls-18{fill:#d5a9ff;}.cls-19{fill:#dbbaff;}.cls-20{fill:#cc6598;}.cls-21{fill:#f8eae7;}.cls-22{fill:#fff9ed;}.cls-23{fill:#c9c;}.cls-24{fill:#fddbe9;}.cls-25{fill:#fff;}.cls-26{fill:#caeaff;}.cls-27{fill:#96b8f5;}.cls-28{fill:#6295ee;}.cls-29{fill:#7dd37f;}.cls-30{fill:#abe0ac;}.cls-31{fill:#b1cca9;}.cls-32{fill:#d4ebcf;}.cls-33{fill:#4d4d4d;}.cls-34{fill:#ababab;}.cls-35{fill:#999;}.cls-36{fill:#e2e2e2;}.cls-37{fill:#d0d0d0;}.cls-38{fill:#e1ffff;}.cls-39{fill:#ffe7a6;}.cls-40{fill:#ffdb75;}.cls-41{fill:#603813;}.cls-42{fill:#754c24;}</style></defs><g id="Слой_2" data-name="Слой 2"><g id="Слой_3" data-name="Слой 3"><rect class="cls-1" width="1920" height="1080"/><path class="cls-2" d="M206.23,445.59C212,440,364,386,364,386L252.19,313.68l52.09-110.2L638.23,101l67.41,141,61.27-5,111.83,27-7.65-99,142.46-64L1134,67l112-27.53L1400.16,137l67.34-2.71L1532.36,233l-84.69,63.83L1572.7,402,1611,528l-38.3,118.5,22.3,66h117.11v43.9l-90.39,13.79L1631,877.43,1688,946l-57,46.32L1437.5,981.6,1298,1006l-32,37-104-77-138-43L893,983.13,816,1028l-57,6,71-69,70-37-50.36-50.55L698,908.06H605L469.5,951l-133.5,23L301.21,870.68l-136.34,6.75V736.5l95-24-85.79-143Z"/><polygon class="cls-3" points="273.85 308 453.88 401 725.77 292 574.11 160.29 273.85 308"/><polyline class="cls-3" points="1003.55 253 1215 339.68 1457.5 229.48 1202.7 93 1009.68 245"/><polygon class="cls-3" points="1309.11 502.32 1504.5 583.51 1650.72 475.58 1419 355.25 1309.11 502.32"/><polygon class="cls-3" points="1208.31 897.68 1355.54 1000.32 1623.15 949 1580.26 770.53 1208.31 897.68"/><path class="cls-3" d="M270.68,751.53C274,757,496,878.68,496,878.68L710.34,689,566,587.62Z"/><path class="cls-4" d="M261.3,731.89C264.62,737.36,486.62,859,486.62,859L701,669.36,556.62,568Z"/><polygon class="cls-4" points="274.19 290.74 454.22 383.74 726.11 274.74 574.45 143.03 274.19 290.74"/><polyline class="cls-4" points="995.11 239.04 1206.56 325.72 1449.06 215.52 1194.26 79.04 1001.24 231.04"/><polygon class="cls-4" points="1301.81 486.96 1497.2 568.15 1643.42 460.22 1411.7 339.89 1301.81 486.96"/><polygon class="cls-4" points="1200.52 871.23 1347.75 973.87 1615.36 922.55 1572.46 744.09 1200.52 871.23"/></g><g id="Слой_2-2" data-name="Слой 2"><line class="cls-5" x1="624" y1="123" x2="644" y2="118"/><path class="cls-4" d="M537,339.68c5-.68,173.32,44.06,173.32,44.06L764,447l-38.23,89L594.16,594.35l39.84,28L740.77,568,782,522l20-88-32-42-89-52.11L561.53,325.72Z"/><polygon class="cls-4" points="1113.02 263.38 1148 288 1058 299 1036.43 355.25 955 372 848 372 788.24 415.94 745 394 785 377 792.85 355.25 958.3 355.25 1011.91 339.89 1022.64 280.64 1113.02 263.38"/><polygon class="cls-4" points="1316.77 474.03 1158.98 541.23 1076.26 469.38 916.94 474.03 785.79 505.31 753 522 788.25 541.23 834 518 912 496 1062 492 1111.49 536 1139.06 568.15 1200.52 567.98 1260.09 536 1352 483 1316.77 474.03"/><polygon class="cls-4" points="1262 872 1301.81 859.04 1178.89 808 1041.02 770.53 1023 674 1090 663 1052.5 541.23 1108.43 518.77 1094.42 485.16 1023 518.77 1033.36 583.51 1044 631 966 648 987.4 713.51 981 795 1072 818 1262 872"/><rect class="cls-6" x="1111.94" y="150.27" width="155.39" height="109.12"/><polyline class="cls-7" points="1168.73 119.22 1311.6 119.22 1267.23 150.27 1111.94 150.27"/><polygon class="cls-8" points="1267.33 259.39 1311.6 222.42 1311.6 119.22 1267.23 150.27 1267.33 259.39"/><polygon class="cls-8" points="1111.94 240.22 1129.42 230.46 1148.54 228.84 1150.56 240.22 1143.17 259.75 1111.94 259.39 1111.94 240.22"/><rect class="cls-9" x="1121.69" y="251.53" width="69.84" height="8.21"/><polygon class="cls-4" points="1135 244.66 1121.69 251.53 1191.53 251.53 1202.11 244.66 1135 244.66"/><polygon class="cls-9" points="1135 244.66 1202.45 244.66 1202.45 235.78 1135.24 235.78 1135 244.66"/><polygon class="cls-4" points="1148.54 228.84 1135.56 235.71 1202.45 235.78 1212.21 228.69 1148.54 228.84"/><polygon class="cls-10" points="1212.21 228.69 1201.56 235.78 1201.56 244.66 1191.53 251.53 1191.53 259.75 1212.21 259.75 1212.21 228.69"/><path class="cls-11" d="M1221.46,166.27c-.32.92,0,33.87,0,33.87h37.48V166.27Z"/><polygon class="cls-12" points="1225.39 170.69 1224.96 177.87 1233.35 177.63 1235.48 170.69 1225.39 170.69"/><path class="cls-12" d="M1227.32,187.42c0,.76-1.93,9.39-1.93,9.39h11.89s-.25-9.85-1.18-9.39S1227.32,187.42,1227.32,187.42Z"/><polygon class="cls-12" points="1242.7 171.3 1242.7 177.25 1255.36 177.93 1255.36 170.69 1242.7 171.3"/><polygon class="cls-12" points="1244.87 189.04 1244.81 194.81 1255.36 194.81 1256.11 187.42 1244.87 189.04"/><polygon class="cls-8" points="1218.63 86.03 1202.71 140.32 1279.32 128.56 1289.26 67.02 1218.63 86.03"/><polygon class="cls-8" points="1168.2 61.79 1218.63 86.03 1202.71 140.32 1136.05 111.36 1168.2 61.79"/><polygon class="cls-13" points="1218.78 84.53 1204.25 135.55 1274.14 124.5 1283.21 66.67 1218.78 84.53"/><polygon class="cls-13" points="1172.77 61.75 1218.78 84.53 1204.25 135.55 1143.44 108.34 1172.77 61.75"/><polygon class="cls-14" points="1221.08 77.78 1207.47 128.8 1272.95 117.75 1281.46 59.92 1221.08 77.78"/><polygon class="cls-14" points="1177.97 55 1221.08 77.78 1207.47 128.8 1150.5 101.59 1177.97 55"/><line class="cls-15" x1="1221.15" y1="77.86" x2="1207.88" y2="127.05"/><polygon class="cls-16" points="1189.62 60.92 1182.7 76.66 1190.72 75.2 1193.63 80.79 1200.14 66.48 1189.62 60.92"/><line class="cls-17" x1="1226.58" y1="87.56" x2="1270.18" y2="76.36"/><line class="cls-17" x1="1220.32" y1="113.61" x2="1264.49" y2="104.94"/><line class="cls-17" x1="1224.12" y1="100.04" x2="1267.72" y2="88.84"/><polygon class="cls-8" points="1161.9 228.81 1161.9 178.21 1202.11 177.87 1202.11 228.69 1161.9 228.81"/><path class="cls-11" d="M1193.52,204.83c-.59.2,0,4.46,0,4.46h5.77v-4.46Z"/><rect class="cls-18" x="1377.94" y="396.43" width="162.5" height="101.57"/><polygon class="cls-19" points="1431.53 359.14 1377.94 396.43 1540.44 396.43 1584.47 359.14 1431.53 359.14"/><polygon class="cls-20" points="1584.47 453.97 1540.44 498 1540.44 396.43 1584.47 359.14 1584.47 453.97"/><polygon class="cls-21" points="1484.29 269 1489.57 269 1511.61 276.18 1533.12 296.81 1540.38 322.1 1532.63 351.55 1512.66 371.68 1493.96 377.3 1486.49 377.81 1463.48 372.76 1440.67 352.32 1432.64 321.27 1440.41 295.91 1463.48 275.13 1484.29 269"/><polygon class="cls-22" points="1483.87 272.09 1472.73 274.4 1460.96 279.86 1462.43 284.28 1468.94 286.17 1483.87 272.09"/><path class="cls-22" d="M1486.49,272.09c-.52,1.26-6.41,8-6.41,8l5.05,1.26h7.12Z"/><path class="cls-22" d="M1458,283.65a38.06,38.06,0,0,1,1.06,4l7.56,1.05-7.56,14.08-2.46,21.13-21.93-5.57Z"/><polygon class="cls-22" points="1491.01 273.98 1497.61 276.71 1506.99 285.33 1510.98 298.36 1528.01 295.21 1502.55 273.98 1491.01 273.98"/><polygon class="cls-22" points="1483.24 372.76 1483.24 374.9 1488.28 375.71 1483.24 372.76"/><polygon class="cls-22" points="1491.01 375.33 1506.36 358.68 1516.66 365.2 1504.81 372.76 1491.01 375.33"/><polygon class="cls-22" points="1478.51 281.33 1480.92 284.7 1487.2 283.65 1483.87 294.41 1477.35 305.93 1471.68 303.19 1463.48 301.51 1478.51 281.33"/><path class="cls-22" d="M1438.05,326.1l17.65.84s-.63,10.72-.84,11.56,4.63,13.46,4.63,13.46l-12.62,3.15-8-16.4Z"/><path class="cls-22" d="M1457.59,359.94c.42-.42,7.4-4.83,7.4-4.83l5.22,8.83,10.29,8-.81,2.32-17.47-4.84Z"/><polygon class="cls-22" points="1506.2 355.11 1518.13 362.25 1527.16 354.06 1532.63 336.4 1518.97 332.2 1511.61 345.86 1506.2 355.11"/><path class="cls-22" d="M1512.66,301.93c.63-.21,16-3.15,16-3.15l7.77,13.66-3.15,18.71-14.92-2.52,5-12.41Z"/><path class="cls-22" d="M1490.38,285.12l8.2-1.47s8.62,21,9.46,20.8-25.34-.68-25.34-.68Z"/><path class="cls-22" d="M1499.42,307.61c.84-.21,8.64,1.29,8.64,1.29l4.18-2.34,2.94,12.4-4.62,17-18.2-3.78,6-11.77Z"/><path class="cls-22" d="M1466.63,307c.21,0,14.71,2.33,14.71,2.33l-6,13,7.9,12.13-24.81,2.8L1461,316Z"/><path class="cls-22" d="M1487.2,308c1.5,0,8.65,2.51,8.65,2.51l.21,10.09-9.57,8.43L1482,323Z"/><path class="cls-22" d="M1465.37,343.13c2.52-.42,18.92-4.42,18.92-4.42l-1.59,19.34-9.88,4.21L1459.49,342Z"/><path class="cls-22" d="M1477.14,363.94c.42,0,6.73-2.78,6.73-2.78l3.33,11.17Z"/><path class="cls-22" d="M1488.28,361.16c.21.68,1.5,11.6,1.5,11.6l14-14.6Z"/><path class="cls-22" d="M1488.28,341.2c.21,1.09,0,17,0,17l16-3.05,6.12-16.4-22.11-4.59Z"/><path class="cls-23" d="M1464.11,363.73c1.05,0,3.56-1.47,3.56-1.47l10.52,10.07c-.42-.41-9.55,0-9.55,0Z"/><path class="cls-23" d="M1482,364.67c.63.32,2.87-.59,2.8-.45s2.42,7.46,2.42,7.46Z"/><polygon class="cls-23" points="1496.06 371.04 1497.51 372.76 1509.51 369.76 1511.61 362.68 1496.06 371.04"/><polygon class="cls-23" points="1491.01 370.5 1501.59 358.68 1492.28 361.83 1491.01 370.5"/><polygon class="cls-23" points="1512.66 356.12 1517.59 361.93 1527.33 353.53 1529.48 342.71 1512.66 356.12"/><path class="cls-23" d="M1489.75,354.27s-1.47,3.12-.73,3,14.81-3,14.81-3l5.16-13.66h-5.16l-2.24,11.32Z"/><polygon class="cls-23" points="1463.48 343.56 1469.05 344.21 1476.04 355.11 1481.97 351.83 1482.17 358.16 1472.41 361.63 1460.96 342.71 1463.48 343.56"/><path class="cls-23" d="M1439.52,327.36v11.35l7.77,15.14,10.3-2.35-8.82-3.32-1-12.2-5.26-8.62Z"/><path class="cls-23" d="M1504.89,323.16c-.42.42-10.92,9-10.92,9l15.54,3.56,5.06-19.38h-7.4Z"/><path class="cls-23" d="M1469.05,329.07a27.38,27.38,0,0,1,.73,4.39l12.39.66-7.42-12.85Z"/><path class="cls-24" d="M1465.51,277.75c.49.64,3.54,4.74,3.54,4.74l9.92-5.78.68-3.75Z"/><polygon class="cls-24" points="1486.17 273.98 1483.87 278.2 1487.2 279.13 1486.17 273.98"/><polygon class="cls-24" points="1497.95 275.24 1502.98 273.98 1511.14 283.65 1508.06 284.32 1497.95 275.24"/><polygon class="cls-24" points="1491.01 285 1498.9 285 1500.26 290.16 1495.01 288.9 1492.25 296.77 1486.49 299.24 1491.01 285"/><polygon class="cls-24" points="1478.2 283.65 1479.65 286.89 1486.17 286.17 1484.29 292.12 1476.09 292.68 1467.68 297.73 1478.2 283.65"/><polygon class="cls-24" points="1456.96 287.43 1460.33 290.16 1464.95 289.74 1458.43 294.05 1445.4 310.34 1441.62 309.71 1456.96 287.43"/><polygon class="cls-24" points="1467.68 309 1474.41 309.92 1469.05 321.27 1466.63 332.2 1458.43 329.82 1467.68 309"/><polygon class="cls-24" points="1515.18 302.67 1520.69 309 1525.27 315.59 1530.11 312.23 1521.87 306.56 1530.42 301.92 1528.01 299.77 1515.18 302.67"/><polygon class="cls-24" points="1500.26 310.34 1500.26 316.38 1504.54 319.09 1507.2 311.18 1511.61 308.04 1500.26 310.34"/><path class="cls-24" d="M1486.49,310.83l-1.9,5.15,5.08,3.11,1.34-7,4.9,1.45s.57-2.8-.06-3S1486.49,310.83,1486.49,310.83Z"/><path class="cls-24" d="M1515.18,292.12c0,.14-1,3.86,0,3.79s10.72-.91,10.72-.91l-9.72-7.57Z"/><polygon class="cls-25" points="1502.12 276.71 1502.79 279.58 1507.2 280.7 1506.97 278.71 1502.12 276.71"/><path class="cls-25" d="M1491,286.89c0,1-.64,5.58-.64,5.58h2.41l2.6-5.58Z"/><polygon class="cls-25" points="1477.14 285.71 1474.41 290.69 1478.2 291.08 1480.5 289.68 1477.14 285.71"/><polygon class="cls-25" points="1486.17 276.55 1484.29 280.13 1487.2 280.7 1486.17 276.55"/><path class="cls-25" d="M1471.15,277.73a18.35,18.35,0,0,1-.9,3l8.57-5.67-3.21-1Z"/><path class="cls-25" d="M1456.4,291.08a47.23,47.23,0,0,1-3.11,4.83h1.07l6.12-4.24Z"/><path class="cls-25" d="M1519,292.12c-.42.35-1.73,1.41-1.29,1.93s4,0,4,0Z"/><path class="cls-25" d="M1517.59,303.1c.54.72,5.22,8.94,5.22,8.94l4.64-4-4.07-4.85Z"/><polygon class="cls-25" points="1502.12 312.04 1500.89 320.01 1502.57 322.53 1505.94 310.34 1502.12 312.04"/><path class="cls-25" d="M1487.2,312.44s-3.33,7-3.33,7.4,3.76,2.69,3.76,2.69l1.93-10.49Z"/><path class="cls-25" d="M1467.68,311.15c.21.66-1,4.44-1,4.44l9,1.7,3.21-7Z"/><polygon class="cls-25" points="1441.62 333.58 1445.82 342.08 1450.66 342.08 1447.51 328.42 1441.62 333.58"/><path class="cls-25" d="M1466.42,347.23c0,.52,2.63,6.62,2.63,6.62s5.78-.2,5.36-.52-5.36-7.94-5.36-7.94Z"/><path class="cls-25" d="M1460.48,361.16c.69.25,3,3.43,3,3.43s1.68-1.51,1.47-1.71-1.47-3.22-1.47-3.22Z"/><polygon class="cls-25" points="1471.15 367.72 1473.15 371.71 1479.91 373.62 1471.15 367.72"/><path class="cls-25" d="M1503.41,330.68a48.67,48.67,0,0,1,5.68,3l1.3-6Z"/><path class="cls-25" d="M1500.89,341.09c-.21.57-2,10.2-2,10.2s3.84.59,3.76,0,1.61-11.81,1.61-11.81Z"/><path class="cls-25" d="M1489.56,336c.19,1.26.81,3.5.81,3.5h2v-1.75Z"/><path class="cls-25" d="M1519.63,334.55c-.24,1-2.36,4.65-2,4.93a35.4,35.4,0,0,0,3.48,1.51l4.24-2.28Z"/><polygon class="cls-25" points="1515.18 355.69 1517.59 359.23 1524.54 353.85 1524.54 348.95 1515.18 355.69"/><polygon class="cls-25" points="1500.89 369.54 1501.59 370.67 1505.94 369.54 1500.89 369.54"/><path class="cls-25" d="M1493.38,363.74a10.94,10.94,0,0,1-.51,3.27l5-5.38Z"/><path class="cls-25" d="M1479.91,364.67c.59.53,3.81,2.34,3.81,2.34l.87-1.17Z"/><path class="cls-25" d="M1484.59,374.24s-.33,2.66,0,2.38a37.62,37.62,0,0,1,4.43-1.18Z"/><path class="cls-1" d="M1467.45,498c-.75-2.42,0-42.76,0-42.76l9-20.44,18.86-8.89L1516,434.8l4.33,16.44,1,46.76Z"/><polygon class="cls-20" points="1504.79 461.95 1505.64 471.68 1514.89 469.9 1514.89 461.95 1504.79 461.95"/><path class="cls-1" d="M1403.46,416.93c-1.16,1.74-11,12.18-11,12.18l5.51,25.28h36.62l5-18.73-20.39-22.8Z"/><polygon class="cls-26" points="1523.41 914.42 1523.41 712.74 1424.06 712.74 1424.06 914.5 1523.41 914.42"/><polygon class="cls-27" points="1397.03 688.26 1424.06 712.74 1523.41 712.74 1498.11 688.26 1397.03 688.26"/><polyline class="cls-28" points="1397.03 883.25 1424.06 914.5 1424.06 712.74 1397.03 688.26"/><polygon class="cls-26" points="1410.58 928.73 1410.58 805.46 1338.61 805.46 1338.61 928.78 1410.58 928.73"/><polygon class="cls-27" points="1319.03 790.49 1338.61 805.46 1410.58 805.46 1392.25 790.49 1319.03 790.49"/><polyline class="cls-28" points="1319.03 909.68 1338.61 928.78 1338.61 805.46 1319.03 790.49"/><path class="cls-29" d="M1481.83,612.5l4,9.74-26.18,2.45-9.39,7.71.71,11,4.8,7.18,25.83-1.25,12,15.89s2.42,14.07,1.57,14.71-17.94,14.41-17.94,14.41L1437,688.38l1.7-9.25s36.79,5.75,37.31,5.06,10.24-10.28,10.24-10.28l-11.49-11.78-25.83-.81L1438.1,646.8l-1.23-16,15.2-15Z"/><path class="cls-30" d="M1458.73,608.09a13,13,0,0,0,3.71,0l-3.53,92.12-5.48-1.26Z"/><polygon class="cls-30" points="1469.95 608.07 1472.92 606.7 1470.13 700.18 1465.24 699.44 1469.95 608.07"/><polygon class="cls-26" points="1564 934.41 1564 859.2 1520.09 859.2 1520.09 934.44 1564 934.41"/><polygon class="cls-27" points="1508.14 850.07 1520.09 859.2 1564 859.2 1552.82 850.07 1508.14 850.07"/><polyline class="cls-28" points="1508.14 922.79 1520.09 934.44 1520.09 859.2 1508.14 850.07"/><polygon class="cls-27" points="1436.71 723.99 1436.71 748.57 1455.58 748.57 1452.48 726.51 1436.71 723.99"/><polygon class="cls-27" points="1436.92 759.64 1436.92 784.22 1455.79 784.22 1452.68 762.16 1436.92 759.64"/><polygon class="cls-27" points="1467.39 726.51 1469.34 746.62 1485.38 746.62 1487.04 726.51 1467.39 726.51"/><polygon class="cls-27" points="1503.63 726.51 1517.36 726.51 1516.02 742.08 1498.51 744.67 1503.63 726.51"/><polygon class="cls-27" points="1467.07 762.18 1469.01 782.28 1485.06 782.28 1486.71 762.18 1467.07 762.18"/><polygon class="cls-27" points="1503.31 762.83 1517.03 762.83 1515.7 778.39 1498.19 780.98 1503.31 762.83"/><polygon class="cls-27" points="1436.75 795.05 1436.75 819.63 1455.63 819.63 1452.52 797.57 1436.75 795.05"/><polygon class="cls-27" points="1466.91 797.59 1468.85 817.69 1484.89 817.69 1486.55 797.59 1466.91 797.59"/><polygon class="cls-27" points="1503.15 798.24 1516.87 798.24 1515.54 813.8 1498.03 816.39 1503.15 798.24"/><polygon class="cls-27" points="1436.75 832.66 1436.75 857.24 1455.63 857.24 1452.52 835.18 1436.75 832.66"/><polygon class="cls-27" points="1466.91 835.19 1468.85 855.29 1484.89 855.29 1486.55 835.19 1466.91 835.19"/><polygon class="cls-27" points="1436.75 870.91 1436.75 895.49 1455.63 895.49 1452.52 873.43 1436.75 870.91"/><polygon class="cls-27" points="1466.91 873.45 1468.85 893.55 1484.89 893.55 1486.55 873.45 1466.91 873.45"/><polygon class="cls-27" points="1350.29 816.39 1350.29 836.31 1368.19 839.98 1373.14 813.62 1350.29 816.39"/><path class="cls-27" d="M1382.08,826.8c.37,2.81,2.32,9.94,2.32,9.94l18.54-1.55V813.62h-17.88Z"/><polygon class="cls-27" points="1532.88 869.16 1536.07 877.7 1553.63 876.29 1553.63 867.12 1532.88 869.16"/><polygon class="cls-27" points="1532.88 890.28 1530.93 905.47 1556.22 899.63 1553.63 886.97 1532.88 890.28"/><polygon class="cls-27" points="1536.07 917.43 1536.07 926.04 1553.63 926.04 1556.22 909.49 1536.07 917.43"/><polygon class="cls-27" points="1349.99 852.69 1349.99 872.62 1367.88 876.28 1372.84 849.92 1349.99 852.69"/><path class="cls-27" d="M1381.78,863.1c.37,2.81,2.31,9.94,2.31,9.94l18.54-1.54V849.92h-17.87Z"/><polygon class="cls-27" points="1350.17 890.86 1350.17 910.79 1368.06 914.46 1373.02 888.1 1350.17 890.86"/><path class="cls-27" d="M1382,901.28c.38,2.8,2.32,9.93,2.32,9.93l18.54-1.54V888.1h-17.88Z"/><polyline class="cls-31" points="454.25 247.97 454.25 330.83 349.23 289.4 349.68 214.55"/><polyline class="cls-32" points="454.25 330.35 630 262.3 630 191.86 454.25 247.97"/><polygon class="cls-1" points="523.21 162.02 349.68 214.55 454.25 247.97 630 192.04 523.21 162.02"/><polygon class="cls-33" points="409.89 177.14 442.18 172.82 484.32 158.81 504.95 142.71 521.36 120.85 472.92 136.18 429.14 158.81 409.89 177.14"/><polygon class="cls-34" points="409.86 177.25 408.65 137.77 421.68 114.3 451.06 96.81 480.09 96.81 521.29 120.91 494.17 131.57 459.83 144.97 432.34 160.5 409.86 177.25"/><path class="cls-35" d="M416.07,142.62c1.31,1.79,1.75,16.21,1.75,16.21l9.74-3-3.95-8.29,8.73-9.81-6.26-17.69Z"/><path class="cls-35" d="M456.84,103.27s-6.55,12.15-5.43,12.53,17.65,1.61,17.65,1.61l5.36,7.93,15.22-11S474.4,94.65,472.45,96.81,456.84,103.27,456.84,103.27Z"/><polygon class="cls-36" points="420.97 168.97 410.74 176.59 452.72 197.71 496.11 202.57 511.26 195.47 521.29 158.83 521.29 120.91 513.53 123.96 515 156.19 506.4 190.79 486.95 190.23 455.34 189.67 420.97 168.97"/><polygon class="cls-37" points="511.26 195.47 495.36 198.09 467.72 195.28 452.54 192.47 427.85 179.2 416.48 172.32 420.97 168.97 454.41 188.55 468.62 189.86 493.68 190.42 506.4 190.79 511.26 195.47"/><polygon class="cls-37" points="515 156.19 521.29 120.91 513.53 123.96 515 156.19"/><polygon class="cls-38" points="466.94 253.54 467.68 314.37 503.56 300.25 503.7 243.48 466.94 253.54"/><polygon class="cls-38" points="532.76 233.32 533.44 289.11 566.35 276.16 566.48 224.09 532.76 233.32"/><polygon class="cls-38" points="588.04 214.3 588.72 269.11 621.05 256.39 621.18 205.23 588.04 214.3"/><polygon class="cls-39" points="367.94 747.83 367.94 645.86 509.47 645.98 510.79 750.47 367.94 747.83"/><path class="cls-40" d="M602,618.38c-1.32,1.33,0,101.45,0,101.45l-91.21,30.64L509.47,646Z"/><polygon class="cls-39" points="428.78 587.78 367.94 645.86 509.47 645.98 428.78 587.78"/><path class="cls-41" d="M532,565.29c-2.64,0-103.17,22.49-103.17,22.49L509.47,646,602,618.38Z"/><polygon class="cls-42" points="512.11 558.68 512.11 595.88 535.92 611.59 535.92 558.68 512.11 558.68"/><path class="cls-38" d="M540.18,668c1.59,1.68,3.7,46.6,3.7,46.6l31.17-7.4L571.36,649Z"/><polygon class="cls-42" points="411.79 674.92 411.79 748.64 459.66 749.53 459.66 674.92 411.79 674.92"/><path class="cls-40" d="M447,712.22a21,21,0,0,0,0,3.75c.21.69,3.91,1.75,3.91,1.75l2.83-3.17Z"/></g></g></svg>