<svg xmlns="http://www.w3.org/2000/svg" viewBox="0 0 282.02 255.13"><defs><style>.cls-1{fill:#ffdb75;}.cls-2{fill:#ffedbc;}.cls-3{fill:#fff9eb;}.cls-4{fill:#bf8b71;}</style></defs><g id="Слой_2" data-name="Слой 2"><g id="Слой_3" data-name="Слой 3"><polygon class="cls-1" points="82 0 186.78 0 282.02 81.51 282.02 179.55 182.01 255.13 98 243 0 163 0 61.09 82 0"/><polygon class="cls-2" points="107.23 63.13 186.78 63.13 239.13 127.56 197.36 183.64 107.23 175.47 49 110 107.23 63.13"/><polygon class="cls-3" points="49 63.13 107.23 40.66 94 16 49 63.13"/><path class="cls-2" d="M164,100l22-45"/><polygon class="cls-4" points="177 80 186.78 63.13 107.23 63.13 49 110 86.46 152.12 107.23 175.47 122 166 78.12 112.66 114 86 177 80"/></g></g></svg>