<svg xmlns="http://www.w3.org/2000/svg" viewBox="0 0 302.63 266.55"><defs><style>.cls-1{fill:#999;}.cls-2{fill:#e2e2e2;}.cls-3{fill:none;stroke:#000;stroke-miterlimit:10;stroke-width:6px;}</style></defs><g id="Слой_2" data-name="Слой 2"><g id="Слой_3" data-name="Слой 3"><polygon class="cls-1" points="110 0 196.99 0 293.19 76.6 302.63 183.83 228.78 266.55 110 266.55 0 185 0 68.5 110 0"/><polygon class="cls-2" points="22 84 22 166.47 118.7 246.13 219.84 246.13 275.98 174.64 266.79 84 192 22 117 22 22 84"/><line class="cls-3" x1="156" y1="29" x2="156" y2="56"/><line class="cls-3" x1="32" y1="124" x2="56" y2="124"/><line class="cls-3" x1="165" y1="232" x2="165" y2="204"/><line class="cls-3" x1="262" y1="127" x2="236" y2="127"/><polygon points="156 127 151.31 137.11 160.06 137.11 168.75 137.11 156 127"/></g></g></svg>